<svg xmlns="http://www.w3.org/2000/svg" width="1600" height="1200" viewBox="0 0 1600 1200">
<rect width="100%" height="100%" fill="#f7fafc"/>
<text x="50" y="60" font-size="28" font-family="Arial" fill="#1a202c">Context graph parcial de Final Fantasy</text>
<line x1="652.3" y1="386.0" x2="920.0" y2="600.0" stroke="#cbd5e0" stroke-width="1.5" />
<line x1="652.3" y1="386.0" x2="932.9" y2="191.0" stroke="#cbd5e0" stroke-width="1.5" />
<line x1="652.3" y1="386.0" x2="452.1" y2="347.3" stroke="#cbd5e0" stroke-width="1.5" />
<line x1="547.6" y1="662.2" x2="920.0" y2="600.0" stroke="#cbd5e0" stroke-width="1.5" />
<line x1="547.6" y1="662.2" x2="932.9" y2="191.0" stroke="#cbd5e0" stroke-width="1.5" />
<line x1="547.6" y1="662.2" x2="452.1" y2="347.3" stroke="#cbd5e0" stroke-width="1.5" />
<line x1="892.2" y1="356.9" x2="920.0" y2="600.0" stroke="#cbd5e0" stroke-width="1.5" />
<line x1="892.2" y1="356.9" x2="932.9" y2="191.0" stroke="#cbd5e0" stroke-width="1.5" />
<line x1="892.2" y1="356.9" x2="932.9" y2="1009.0" stroke="#cbd5e0" stroke-width="1.5" />
<line x1="892.2" y1="843.1" x2="920.0" y2="600.0" stroke="#cbd5e0" stroke-width="1.5" />
<line x1="892.2" y1="843.1" x2="932.9" y2="191.0" stroke="#cbd5e0" stroke-width="1.5" />
<line x1="892.2" y1="843.1" x2="932.9" y2="1009.0" stroke="#cbd5e0" stroke-width="1.5" />
<line x1="994.6" y1="427.6" x2="920.0" y2="600.0" stroke="#cbd5e0" stroke-width="1.5" />
<line x1="994.6" y1="427.6" x2="932.9" y2="191.0" stroke="#cbd5e0" stroke-width="1.5" />
<line x1="994.6" y1="427.6" x2="452.1" y2="852.7" stroke="#cbd5e0" stroke-width="1.5" />
<line x1="605.4" y1="772.4" x2="920.0" y2="600.0" stroke="#cbd5e0" stroke-width="1.5" />
<line x1="605.4" y1="772.4" x2="932.9" y2="191.0" stroke="#cbd5e0" stroke-width="1.5" />
<line x1="605.4" y1="772.4" x2="452.1" y2="852.7" stroke="#cbd5e0" stroke-width="1.5" />
<line x1="679.2" y1="830.2" x2="920.0" y2="600.0" stroke="#cbd5e0" stroke-width="1.5" />
<line x1="679.2" y1="830.2" x2="932.9" y2="191.0" stroke="#cbd5e0" stroke-width="1.5" />
<line x1="679.2" y1="830.2" x2="452.1" y2="852.7" stroke="#cbd5e0" stroke-width="1.5" />
<line x1="541.9" y1="631.3" x2="920.0" y2="600.0" stroke="#cbd5e0" stroke-width="1.5" />
<line x1="541.9" y1="631.3" x2="932.9" y2="191.0" stroke="#cbd5e0" stroke-width="1.5" />
<line x1="541.9" y1="631.3" x2="452.1" y2="852.7" stroke="#cbd5e0" stroke-width="1.5" />
<line x1="800.0" y1="340.0" x2="920.0" y2="600.0" stroke="#cbd5e0" stroke-width="1.5" />
<line x1="800.0" y1="340.0" x2="932.9" y2="191.0" stroke="#cbd5e0" stroke-width="1.5" />
<line x1="800.0" y1="340.0" x2="452.1" y2="347.3" stroke="#cbd5e0" stroke-width="1.5" />
<line x1="800.0" y1="340.0" x2="932.9" y2="1009.0" stroke="#cbd5e0" stroke-width="1.5" />
<line x1="652.3" y1="814.0" x2="920.0" y2="600.0" stroke="#cbd5e0" stroke-width="1.5" />
<line x1="652.3" y1="814.0" x2="932.9" y2="191.0" stroke="#cbd5e0" stroke-width="1.5" />
<line x1="652.3" y1="814.0" x2="452.1" y2="852.7" stroke="#cbd5e0" stroke-width="1.5" />
<line x1="1014.0" y1="452.3" x2="920.0" y2="600.0" stroke="#cbd5e0" stroke-width="1.5" />
<line x1="1014.0" y1="452.3" x2="932.9" y2="191.0" stroke="#cbd5e0" stroke-width="1.5" />
<line x1="1014.0" y1="452.3" x2="452.1" y2="852.7" stroke="#cbd5e0" stroke-width="1.5" />
<line x1="972.4" y1="405.4" x2="920.0" y2="600.0" stroke="#cbd5e0" stroke-width="1.5" />
<line x1="972.4" y1="405.4" x2="932.9" y2="191.0" stroke="#cbd5e0" stroke-width="1.5" />
<line x1="972.4" y1="405.4" x2="932.9" y2="1009.0" stroke="#cbd5e0" stroke-width="1.5" />
<line x1="862.2" y1="347.6" x2="920.0" y2="600.0" stroke="#cbd5e0" stroke-width="1.5" />
<line x1="862.2" y1="347.6" x2="932.9" y2="191.0" stroke="#cbd5e0" stroke-width="1.5" />
<line x1="862.2" y1="347.6" x2="932.9" y2="1009.0" stroke="#cbd5e0" stroke-width="1.5" />
<line x1="947.7" y1="386.0" x2="920.0" y2="600.0" stroke="#cbd5e0" stroke-width="1.5" />
<line x1="627.6" y1="794.6" x2="920.0" y2="600.0" stroke="#cbd5e0" stroke-width="1.5" />
<line x1="627.6" y1="794.6" x2="932.9" y2="191.0" stroke="#cbd5e0" stroke-width="1.5" />
<line x1="627.6" y1="794.6" x2="452.1" y2="852.7" stroke="#cbd5e0" stroke-width="1.5" />
<line x1="768.7" y1="341.9" x2="920.0" y2="600.0" stroke="#cbd5e0" stroke-width="1.5" />
<line x1="768.7" y1="341.9" x2="932.9" y2="191.0" stroke="#cbd5e0" stroke-width="1.5" />
<line x1="768.7" y1="341.9" x2="452.1" y2="852.7" stroke="#cbd5e0" stroke-width="1.5" />
<line x1="627.6" y1="405.4" x2="920.0" y2="600.0" stroke="#cbd5e0" stroke-width="1.5" />
<line x1="627.6" y1="405.4" x2="932.9" y2="191.0" stroke="#cbd5e0" stroke-width="1.5" />
<line x1="627.6" y1="405.4" x2="452.1" y2="347.3" stroke="#cbd5e0" stroke-width="1.5" />
<line x1="541.9" y1="568.7" x2="920.0" y2="600.0" stroke="#cbd5e0" stroke-width="1.5" />
<line x1="541.9" y1="568.7" x2="932.9" y2="191.0" stroke="#cbd5e0" stroke-width="1.5" />
<line x1="541.9" y1="568.7" x2="452.1" y2="852.7" stroke="#cbd5e0" stroke-width="1.5" />
<line x1="586.0" y1="747.7" x2="920.0" y2="600.0" stroke="#cbd5e0" stroke-width="1.5" />
<line x1="586.0" y1="747.7" x2="932.9" y2="191.0" stroke="#cbd5e0" stroke-width="1.5" />
<line x1="586.0" y1="747.7" x2="452.1" y2="852.7" stroke="#cbd5e0" stroke-width="1.5" />
<line x1="1058.1" y1="568.7" x2="920.0" y2="600.0" stroke="#cbd5e0" stroke-width="1.5" />
<line x1="1058.1" y1="568.7" x2="932.9" y2="191.0" stroke="#cbd5e0" stroke-width="1.5" />
<line x1="1058.1" y1="568.7" x2="452.1" y2="852.7" stroke="#cbd5e0" stroke-width="1.5" />
<line x1="1052.4" y1="537.8" x2="920.0" y2="600.0" stroke="#cbd5e0" stroke-width="1.5" />
<line x1="1060.0" y1="600.0" x2="920.0" y2="600.0" stroke="#cbd5e0" stroke-width="1.5" />
<line x1="1060.0" y1="600.0" x2="1230.0" y2="600.0" stroke="#cbd5e0" stroke-width="1.5" />
<line x1="920.8" y1="369.8" x2="920.0" y2="600.0" stroke="#cbd5e0" stroke-width="1.5" />
<line x1="920.8" y1="369.8" x2="932.9" y2="191.0" stroke="#cbd5e0" stroke-width="1.5" />
<line x1="920.8" y1="369.8" x2="932.9" y2="1009.0" stroke="#cbd5e0" stroke-width="1.5" />
<line x1="920.8" y1="830.2" x2="920.0" y2="600.0" stroke="#cbd5e0" stroke-width="1.5" />
<line x1="920.8" y1="830.2" x2="932.9" y2="191.0" stroke="#cbd5e0" stroke-width="1.5" />
<line x1="920.8" y1="830.2" x2="452.1" y2="852.7" stroke="#cbd5e0" stroke-width="1.5" />
<line x1="556.9" y1="692.2" x2="920.0" y2="600.0" stroke="#cbd5e0" stroke-width="1.5" />
<line x1="556.9" y1="692.2" x2="932.9" y2="191.0" stroke="#cbd5e0" stroke-width="1.5" />
<line x1="556.9" y1="692.2" x2="452.1" y2="852.7" stroke="#cbd5e0" stroke-width="1.5" />
<line x1="737.8" y1="347.6" x2="920.0" y2="600.0" stroke="#cbd5e0" stroke-width="1.5" />
<line x1="737.8" y1="347.6" x2="932.9" y2="191.0" stroke="#cbd5e0" stroke-width="1.5" />
<line x1="737.8" y1="347.6" x2="452.1" y2="852.7" stroke="#cbd5e0" stroke-width="1.5" />
<line x1="1030.2" y1="479.2" x2="920.0" y2="600.0" stroke="#cbd5e0" stroke-width="1.5" />
<line x1="1030.2" y1="479.2" x2="932.9" y2="191.0" stroke="#cbd5e0" stroke-width="1.5" />
<line x1="1030.2" y1="479.2" x2="452.1" y2="852.7" stroke="#cbd5e0" stroke-width="1.5" />
<line x1="920.0" y1="600.0" x2="920.0" y2="600.0" stroke="#cbd5e0" stroke-width="1.5" />
<line x1="920.0" y1="600.0" x2="932.9" y2="191.0" stroke="#cbd5e0" stroke-width="1.5" />
<line x1="920.0" y1="600.0" x2="452.1" y2="852.7" stroke="#cbd5e0" stroke-width="1.5" />
<line x1="547.6" y1="662.2" x2="452.1" y2="852.7" stroke="#cbd5e0" stroke-width="1.5" />
<line x1="540.0" y1="600.0" x2="920.0" y2="600.0" stroke="#cbd5e0" stroke-width="1.5" />
<line x1="540.0" y1="600.0" x2="932.9" y2="191.0" stroke="#cbd5e0" stroke-width="1.5" />
<line x1="540.0" y1="600.0" x2="452.1" y2="852.7" stroke="#cbd5e0" stroke-width="1.5" />
<line x1="569.8" y1="720.8" x2="920.0" y2="600.0" stroke="#cbd5e0" stroke-width="1.5" />
<line x1="569.8" y1="720.8" x2="932.9" y2="191.0" stroke="#cbd5e0" stroke-width="1.5" />
<line x1="569.8" y1="720.8" x2="452.1" y2="852.7" stroke="#cbd5e0" stroke-width="1.5" />
<line x1="569.8" y1="479.2" x2="920.0" y2="600.0" stroke="#cbd5e0" stroke-width="1.5" />
<line x1="569.8" y1="479.2" x2="1230.0" y2="600.0" stroke="#cbd5e0" stroke-width="1.5" />
<line x1="679.2" y1="369.8" x2="920.0" y2="600.0" stroke="#cbd5e0" stroke-width="1.5" />
<line x1="679.2" y1="369.8" x2="932.9" y2="191.0" stroke="#cbd5e0" stroke-width="1.5" />
<line x1="679.2" y1="369.8" x2="452.1" y2="347.3" stroke="#cbd5e0" stroke-width="1.5" />
<line x1="547.6" y1="537.8" x2="920.0" y2="600.0" stroke="#cbd5e0" stroke-width="1.5" />
<line x1="547.6" y1="537.8" x2="932.9" y2="191.0" stroke="#cbd5e0" stroke-width="1.5" />
<line x1="547.6" y1="537.8" x2="932.9" y2="1009.0" stroke="#cbd5e0" stroke-width="1.5" />
<line x1="972.4" y1="794.6" x2="920.0" y2="600.0" stroke="#cbd5e0" stroke-width="1.5" />
<line x1="972.4" y1="794.6" x2="1230.0" y2="600.0" stroke="#cbd5e0" stroke-width="1.5" />
<line x1="707.8" y1="356.9" x2="920.0" y2="600.0" stroke="#cbd5e0" stroke-width="1.5" />
<line x1="707.8" y1="356.9" x2="932.9" y2="191.0" stroke="#cbd5e0" stroke-width="1.5" />
<line x1="707.8" y1="356.9" x2="452.1" y2="852.7" stroke="#cbd5e0" stroke-width="1.5" />
<line x1="831.3" y1="858.1" x2="920.0" y2="600.0" stroke="#cbd5e0" stroke-width="1.5" />
<line x1="831.3" y1="858.1" x2="932.9" y2="191.0" stroke="#cbd5e0" stroke-width="1.5" />
<line x1="831.3" y1="858.1" x2="452.1" y2="852.7" stroke="#cbd5e0" stroke-width="1.5" />
<line x1="831.3" y1="341.9" x2="920.0" y2="600.0" stroke="#cbd5e0" stroke-width="1.5" />
<line x1="831.3" y1="341.9" x2="932.9" y2="191.0" stroke="#cbd5e0" stroke-width="1.5" />
<line x1="831.3" y1="341.9" x2="452.1" y2="347.3" stroke="#cbd5e0" stroke-width="1.5" />
<line x1="831.3" y1="341.9" x2="932.9" y2="1009.0" stroke="#cbd5e0" stroke-width="1.5" />
<line x1="1043.1" y1="692.2" x2="920.0" y2="600.0" stroke="#cbd5e0" stroke-width="1.5" />
<line x1="1043.1" y1="692.2" x2="932.9" y2="191.0" stroke="#cbd5e0" stroke-width="1.5" />
<line x1="1043.1" y1="692.2" x2="932.9" y2="1009.0" stroke="#cbd5e0" stroke-width="1.5" />
<line x1="707.8" y1="843.1" x2="920.0" y2="600.0" stroke="#cbd5e0" stroke-width="1.5" />
<line x1="707.8" y1="843.1" x2="932.9" y2="191.0" stroke="#cbd5e0" stroke-width="1.5" />
<line x1="707.8" y1="843.1" x2="452.1" y2="852.7" stroke="#cbd5e0" stroke-width="1.5" />
<line x1="862.2" y1="852.4" x2="920.0" y2="600.0" stroke="#cbd5e0" stroke-width="1.5" />
<line x1="862.2" y1="852.4" x2="932.9" y2="191.0" stroke="#cbd5e0" stroke-width="1.5" />
<line x1="862.2" y1="852.4" x2="932.9" y2="1009.0" stroke="#cbd5e0" stroke-width="1.5" />
<line x1="605.4" y1="427.6" x2="920.0" y2="600.0" stroke="#cbd5e0" stroke-width="1.5" />
<line x1="605.4" y1="427.6" x2="932.9" y2="191.0" stroke="#cbd5e0" stroke-width="1.5" />
<line x1="605.4" y1="427.6" x2="452.1" y2="852.7" stroke="#cbd5e0" stroke-width="1.5" />
<line x1="1014.0" y1="747.7" x2="920.0" y2="600.0" stroke="#cbd5e0" stroke-width="1.5" />
<line x1="1014.0" y1="747.7" x2="1230.0" y2="600.0" stroke="#cbd5e0" stroke-width="1.5" />
<line x1="1052.4" y1="662.2" x2="920.0" y2="600.0" stroke="#cbd5e0" stroke-width="1.5" />
<line x1="1052.4" y1="662.2" x2="932.9" y2="191.0" stroke="#cbd5e0" stroke-width="1.5" />
<line x1="1052.4" y1="662.2" x2="452.1" y2="852.7" stroke="#cbd5e0" stroke-width="1.5" />
<line x1="1043.1" y1="507.8" x2="920.0" y2="600.0" stroke="#cbd5e0" stroke-width="1.5" />
<line x1="1058.1" y1="631.3" x2="920.0" y2="600.0" stroke="#cbd5e0" stroke-width="1.5" />
<line x1="768.7" y1="858.1" x2="920.0" y2="600.0" stroke="#cbd5e0" stroke-width="1.5" />
<line x1="768.7" y1="858.1" x2="1230.0" y2="600.0" stroke="#cbd5e0" stroke-width="1.5" />
<line x1="737.8" y1="852.4" x2="920.0" y2="600.0" stroke="#cbd5e0" stroke-width="1.5" />
<line x1="1360.0" y1="600.0" x2="920.0" y2="600.0" stroke="#cbd5e0" stroke-width="1.5" />
<line x1="1360.0" y1="600.0" x2="1230.0" y2="600.0" stroke="#cbd5e0" stroke-width="1.5" />
<line x1="994.6" y1="772.4" x2="920.0" y2="600.0" stroke="#cbd5e0" stroke-width="1.5" />
<line x1="994.6" y1="772.4" x2="1230.0" y2="600.0" stroke="#cbd5e0" stroke-width="1.5" />
<line x1="1360.0" y1="600.0" x2="932.9" y2="191.0" stroke="#cbd5e0" stroke-width="1.5" />
<line x1="1360.0" y1="600.0" x2="932.9" y2="1009.0" stroke="#cbd5e0" stroke-width="1.5" />
<line x1="800.0" y1="860.0" x2="920.0" y2="600.0" stroke="#cbd5e0" stroke-width="1.5" />
<line x1="800.0" y1="860.0" x2="932.9" y2="191.0" stroke="#cbd5e0" stroke-width="1.5" />
<line x1="800.0" y1="860.0" x2="932.9" y2="1009.0" stroke="#cbd5e0" stroke-width="1.5" />
<line x1="1030.2" y1="720.8" x2="920.0" y2="600.0" stroke="#cbd5e0" stroke-width="1.5" />
<line x1="1030.2" y1="720.8" x2="1230.0" y2="600.0" stroke="#cbd5e0" stroke-width="1.5" />
<line x1="947.7" y1="814.0" x2="920.0" y2="600.0" stroke="#cbd5e0" stroke-width="1.5" />
<line x1="707.8" y1="843.1" x2="920.0" y2="600.0" stroke="#cbd5e0" stroke-width="1.5" />
<line x1="541.9" y1="568.7" x2="920.0" y2="600.0" stroke="#cbd5e0" stroke-width="1.5" />
<line x1="586.0" y1="452.3" x2="920.0" y2="600.0" stroke="#cbd5e0" stroke-width="1.5" />
<line x1="556.9" y1="507.8" x2="920.0" y2="600.0" stroke="#cbd5e0" stroke-width="1.5" />
<line x1="556.9" y1="507.8" x2="541.9" y2="568.7" stroke="#cbd5e0" stroke-width="1.5" />
<line x1="556.9" y1="507.8" x2="932.9" y2="191.0" stroke="#cbd5e0" stroke-width="1.5" />
<line x1="556.9" y1="507.8" x2="932.9" y2="1009.0" stroke="#cbd5e0" stroke-width="1.5" />
<line x1="920.8" y1="369.8" x2="920.0" y2="600.0" stroke="#cbd5e0" stroke-width="1.5" />
<line x1="586.0" y1="452.3" x2="932.9" y2="191.0" stroke="#cbd5e0" stroke-width="1.5" />
<line x1="586.0" y1="452.3" x2="932.9" y2="1009.0" stroke="#cbd5e0" stroke-width="1.5" />
<line x1="556.9" y1="507.8" x2="680.0" y2="600.0" stroke="#cbd5e0" stroke-width="1.5" />
<line x1="920.8" y1="369.8" x2="932.9" y2="191.0" stroke="#cbd5e0" stroke-width="1.5" />
<line x1="920.8" y1="369.8" x2="932.9" y2="1009.0" stroke="#cbd5e0" stroke-width="1.5" />
<line x1="920.8" y1="369.8" x2="680.0" y2="600.0" stroke="#cbd5e0" stroke-width="1.5" />
<text x="786.2" y="493.0" font-size="11" font-family="Arial" fill="#4a5568">belongs_to_universe</text>
<text x="792.6" y="288.5" font-size="11" font-family="Arial" fill="#4a5568">has_genre</text>
<text x="552.2" y="366.6" font-size="11" font-family="Arial" fill="#4a5568">has_genre</text>
<text x="733.8" y="631.1" font-size="11" font-family="Arial" fill="#4a5568">belongs_to_universe</text>
<text x="740.2" y="426.6" font-size="11" font-family="Arial" fill="#4a5568">has_genre</text>
<text x="499.8" y="504.7" font-size="11" font-family="Arial" fill="#4a5568">has_genre</text>
<text x="906.1" y="478.4" font-size="11" font-family="Arial" fill="#4a5568">belongs_to_universe</text>
<text x="912.5" y="274.0" font-size="11" font-family="Arial" fill="#4a5568">has_genre</text>
<text x="912.5" y="682.9" font-size="11" font-family="Arial" fill="#4a5568">has_genre</text>
<text x="906.1" y="721.6" font-size="11" font-family="Arial" fill="#4a5568">belongs_to_universe</text>
<text x="912.5" y="517.1" font-size="11" font-family="Arial" fill="#4a5568">has_genre</text>
<text x="912.5" y="926.0" font-size="11" font-family="Arial" fill="#4a5568">has_genre</text>
<text x="957.3" y="513.8" font-size="11" font-family="Arial" fill="#4a5568">belongs_to_universe</text>
<text x="963.7" y="309.3" font-size="11" font-family="Arial" fill="#4a5568">has_genre</text>
<text x="723.4" y="640.2" font-size="11" font-family="Arial" fill="#4a5568">has_genre</text>
<text x="762.7" y="686.2" font-size="11" font-family="Arial" fill="#4a5568">belongs_to_universe</text>
<text x="769.1" y="481.7" font-size="11" font-family="Arial" fill="#4a5568">has_genre</text>
<text x="528.8" y="812.6" font-size="11" font-family="Arial" fill="#4a5568">has_genre</text>
<text x="799.6" y="715.1" font-size="11" font-family="Arial" fill="#4a5568">belongs_to_universe</text>
<text x="806.0" y="510.6" font-size="11" font-family="Arial" fill="#4a5568">has_genre</text>
<text x="565.6" y="841.5" font-size="11" font-family="Arial" fill="#4a5568">has_genre</text>
<text x="730.9" y="615.7" font-size="11" font-family="Arial" fill="#4a5568">belongs_to_universe</text>
<text x="737.4" y="411.2" font-size="11" font-family="Arial" fill="#4a5568">has_genre</text>
<text x="497.0" y="742.0" font-size="11" font-family="Arial" fill="#4a5568">has_genre</text>
<text x="860.0" y="470.0" font-size="11" font-family="Arial" fill="#4a5568">belongs_to_universe</text>
<text x="866.4" y="265.5" font-size="11" font-family="Arial" fill="#4a5568">has_genre</text>
<text x="626.1" y="343.6" font-size="11" font-family="Arial" fill="#4a5568">has_genre</text>
<text x="866.4" y="674.5" font-size="11" font-family="Arial" fill="#4a5568">has_genre</text>
<text x="786.2" y="707.0" font-size="11" font-family="Arial" fill="#4a5568">belongs_to_universe</text>
<text x="792.6" y="502.5" font-size="11" font-family="Arial" fill="#4a5568">has_genre</text>
<text x="552.2" y="833.4" font-size="11" font-family="Arial" fill="#4a5568">has_genre</text>
<text x="967.0" y="526.2" font-size="11" font-family="Arial" fill="#4a5568">belongs_to_universe</text>
<text x="973.4" y="321.7" font-size="11" font-family="Arial" fill="#4a5568">has_genre</text>
<text x="733.0" y="652.5" font-size="11" font-family="Arial" fill="#4a5568">has_genre</text>
<text x="946.2" y="502.7" font-size="11" font-family="Arial" fill="#4a5568">belongs_to_universe</text>
<text x="952.6" y="298.2" font-size="11" font-family="Arial" fill="#4a5568">has_genre</text>
<text x="952.6" y="707.2" font-size="11" font-family="Arial" fill="#4a5568">has_genre</text>
<text x="891.1" y="473.8" font-size="11" font-family="Arial" fill="#4a5568">belongs_to_universe</text>
<text x="897.5" y="269.3" font-size="11" font-family="Arial" fill="#4a5568">has_genre</text>
<text x="897.5" y="678.3" font-size="11" font-family="Arial" fill="#4a5568">has_genre</text>
<text x="933.8" y="493.0" font-size="11" font-family="Arial" fill="#4a5568">belongs_to_universe</text>
<text x="773.8" y="697.3" font-size="11" font-family="Arial" fill="#4a5568">belongs_to_universe</text>
<text x="780.2" y="492.8" font-size="11" font-family="Arial" fill="#4a5568">has_genre</text>
<text x="539.9" y="823.7" font-size="11" font-family="Arial" fill="#4a5568">has_genre</text>
<text x="844.3" y="470.9" font-size="11" font-family="Arial" fill="#4a5568">belongs_to_universe</text>
<text x="850.8" y="266.5" font-size="11" font-family="Arial" fill="#4a5568">has_genre</text>
<text x="610.4" y="597.3" font-size="11" font-family="Arial" fill="#4a5568">has_genre</text>
<text x="773.8" y="502.7" font-size="11" font-family="Arial" fill="#4a5568">belongs_to_universe</text>
<text x="780.2" y="298.2" font-size="11" font-family="Arial" fill="#4a5568">has_genre</text>
<text x="539.9" y="376.3" font-size="11" font-family="Arial" fill="#4a5568">has_genre</text>
<text x="730.9" y="584.3" font-size="11" font-family="Arial" fill="#4a5568">belongs_to_universe</text>
<text x="737.4" y="379.9" font-size="11" font-family="Arial" fill="#4a5568">has_genre</text>
<text x="497.0" y="710.7" font-size="11" font-family="Arial" fill="#4a5568">has_genre</text>
<text x="753.0" y="673.8" font-size="11" font-family="Arial" fill="#4a5568">belongs_to_universe</text>
<text x="759.5" y="469.4" font-size="11" font-family="Arial" fill="#4a5568">has_genre</text>
<text x="519.1" y="800.2" font-size="11" font-family="Arial" fill="#4a5568">has_genre</text>
<text x="989.1" y="584.3" font-size="11" font-family="Arial" fill="#4a5568">belongs_to_universe</text>
<text x="995.5" y="379.9" font-size="11" font-family="Arial" fill="#4a5568">has_genre</text>
<text x="755.1" y="710.7" font-size="11" font-family="Arial" fill="#4a5568">has_genre</text>
<text x="986.2" y="568.9" font-size="11" font-family="Arial" fill="#4a5568">belongs_to_universe</text>
<text x="990.0" y="600.0" font-size="11" font-family="Arial" fill="#4a5568">belongs_to_universe</text>
<text x="1145.0" y="600.0" font-size="11" font-family="Arial" fill="#4a5568">has_genre</text>
<text x="920.4" y="484.9" font-size="11" font-family="Arial" fill="#4a5568">belongs_to_universe</text>
<text x="926.9" y="280.4" font-size="11" font-family="Arial" fill="#4a5568">has_genre</text>
<text x="926.9" y="689.4" font-size="11" font-family="Arial" fill="#4a5568">has_genre</text>
<text x="920.4" y="715.1" font-size="11" font-family="Arial" fill="#4a5568">belongs_to_universe</text>
<text x="926.9" y="510.6" font-size="11" font-family="Arial" fill="#4a5568">has_genre</text>
<text x="686.5" y="841.5" font-size="11" font-family="Arial" fill="#4a5568">has_genre</text>
<text x="738.4" y="646.1" font-size="11" font-family="Arial" fill="#4a5568">belongs_to_universe</text>
<text x="744.9" y="441.6" font-size="11" font-family="Arial" fill="#4a5568">has_genre</text>
<text x="504.5" y="772.5" font-size="11" font-family="Arial" fill="#4a5568">has_genre</text>
<text x="828.9" y="473.8" font-size="11" font-family="Arial" fill="#4a5568">belongs_to_universe</text>
<text x="835.3" y="269.3" font-size="11" font-family="Arial" fill="#4a5568">has_genre</text>
<text x="595.0" y="600.2" font-size="11" font-family="Arial" fill="#4a5568">has_genre</text>
<text x="975.1" y="539.6" font-size="11" font-family="Arial" fill="#4a5568">belongs_to_universe</text>
<text x="981.5" y="335.1" font-size="11" font-family="Arial" fill="#4a5568">has_genre</text>
<text x="741.2" y="666.0" font-size="11" font-family="Arial" fill="#4a5568">has_genre</text>
<text x="920.0" y="600.0" font-size="11" font-family="Arial" fill="#4a5568">belongs_to_universe</text>
<text x="926.4" y="395.5" font-size="11" font-family="Arial" fill="#4a5568">has_genre</text>
<text x="686.1" y="726.4" font-size="11" font-family="Arial" fill="#4a5568">has_genre</text>
<circle cx="920.0" cy="600.0" r="26" fill="#6b4f2a" opacity="0.95" />
<text x="920.0" y="645.0" text-anchor="middle" font-size="13" font-family="Arial" fill="#1a202c">Final Fantasy</text>
<circle cx="680.0" cy="600.0" r="26" fill="#6b4f2a" opacity="0.95" />
<text x="680.0" y="645.0" text-anchor="middle" font-size="13" font-family="Arial" fill="#1a202c">Juegos de Final Fantasy</text>
<circle cx="932.9" cy="191.0" r="26" fill="#dd6b20" opacity="0.95" />
<text x="932.9" y="236.0" text-anchor="middle" font-size="13" font-family="Arial" fill="#1a202c">Rol</text>
<circle cx="452.1" cy="852.7" r="26" fill="#dd6b20" opacity="0.95" />
<text x="452.1" y="897.7" text-anchor="middle" font-size="13" font-family="Arial" fill="#1a202c">Combate por turnos</text>
<circle cx="541.9" cy="568.7" r="26" fill="#2b6cb0" opacity="0.95" />
<text x="541.9" y="613.7" text-anchor="middle" font-size="13" font-family="Arial" fill="#1a202c">Final Fantasy VII</text>
<circle cx="920.8" cy="369.8" r="26" fill="#2b6cb0" opacity="0.95" />
<text x="920.8" y="414.8" text-anchor="middle" font-size="13" font-family="Arial" fill="#1a202c">Final Fantasy XVI</text>
<circle cx="932.9" cy="1009.0" r="26" fill="#dd6b20" opacity="0.95" />
<text x="932.9" y="1054.0" text-anchor="middle" font-size="13" font-family="Arial" fill="#1a202c">Acción RPG</text>
<circle cx="556.9" cy="507.8" r="26" fill="#2b6cb0" opacity="0.95" />
<text x="556.9" y="552.8" text-anchor="middle" font-size="13" font-family="Arial" fill="#1a202c">Final Fantasy VII Remake</text>
<circle cx="586.0" cy="452.3" r="26" fill="#2b6cb0" opacity="0.95" />
<text x="586.0" y="497.3" text-anchor="middle" font-size="13" font-family="Arial" fill="#1a202c">Final Fantasy VII: Rebirth</text>
<circle cx="586.0" cy="747.7" r="26" fill="#2b6cb0" opacity="0.95" />
<text x="586.0" y="792.7" text-anchor="middle" font-size="13" font-family="Arial" fill="#1a202c">Final Fantasy IX</text>
<circle cx="652.3" cy="814.0" r="26" fill="#2b6cb0" opacity="0.95" />
<text x="652.3" y="859.0" text-anchor="middle" font-size="13" font-family="Arial" fill="#1a202c">Final Fantasy III</text>
<circle cx="994.6" cy="427.6" r="26" fill="#2b6cb0" opacity="0.95" />
<text x="994.6" y="472.6" text-anchor="middle" font-size="13" font-family="Arial" fill="#1a202c">Legend World</text>
<circle cx="707.8" cy="843.1" r="26" fill="#2b6cb0" opacity="0.95" />
<text x="707.8" y="888.1" text-anchor="middle" font-size="13" font-family="Arial" fill="#1a202c">Final Fantasy Explorers</text>
<circle cx="547.6" cy="662.2" r="26" fill="#2b6cb0" opacity="0.95" />
<text x="547.6" y="707.2" text-anchor="middle" font-size="13" font-family="Arial" fill="#1a202c">Final Fantasy Type-0 HD</text>
<circle cx="540.0" cy="600.0" r="26" fill="#2b6cb0" opacity="0.95" />
<text x="540.0" y="645.0" text-anchor="middle" font-size="13" font-family="Arial" fill="#1a202c">Final Fantasy VI</text>
<circle cx="892.2" cy="356.9" r="26" fill="#2b6cb0" opacity="0.95" />
<text x="892.2" y="401.9" text-anchor="middle" font-size="13" font-family="Arial" fill="#1a202c">Final Fantasy XV Pocket Edit</text>
<circle cx="1230.0" cy="600.0" r="26" fill="#dd6b20" opacity="0.95" />
<text x="1230.0" y="645.0" text-anchor="middle" font-size="13" font-family="Arial" fill="#1a202c">Acción</text>
<circle cx="627.6" cy="794.6" r="26" fill="#2b6cb0" opacity="0.95" />
<text x="627.6" y="839.6" text-anchor="middle" font-size="13" font-family="Arial" fill="#1a202c">Final Fantasy IV</text>
<circle cx="605.4" cy="427.6" r="26" fill="#2b6cb0" opacity="0.95" />
<text x="605.4" y="472.6" text-anchor="middle" font-size="13" font-family="Arial" fill="#1a202c">Final Fantasy VIII</text>
<circle cx="800.0" cy="340.0" r="26" fill="#2b6cb0" opacity="0.95" />
<text x="800.0" y="385.0" text-anchor="middle" font-size="13" font-family="Arial" fill="#1a202c">Final Fantasy XIV</text>
<circle cx="831.3" cy="341.9" r="26" fill="#2b6cb0" opacity="0.95" />
<text x="831.3" y="386.9" text-anchor="middle" font-size="13" font-family="Arial" fill="#1a202c">Final Fantasy XIV Online</text>
<circle cx="972.4" cy="794.6" r="26" fill="#2b6cb0" opacity="0.95" />
<text x="972.4" y="839.6" text-anchor="middle" font-size="13" font-family="Arial" fill="#1a202c">Dissidia Final Fantasy NT</text>
<circle cx="920.8" cy="830.2" r="26" fill="#2b6cb0" opacity="0.95" />
<text x="920.8" y="875.2" text-anchor="middle" font-size="13" font-family="Arial" fill="#1a202c">FF Tactics War of Lions</text>
<circle cx="831.3" cy="858.1" r="26" fill="#2b6cb0" opacity="0.95" />
<text x="831.3" y="903.1" text-anchor="middle" font-size="13" font-family="Arial" fill="#1a202c">FFCC My Life as a Dark Lord</text>
<circle cx="1360.0" cy="600.0" r="26" fill="#4a5568" opacity="0.95" />
<text x="1360.0" y="645.0" text-anchor="middle" font-size="13" font-family="Arial" fill="#1a202c">Final Fantasy Legend II</text>
<circle cx="569.8" cy="720.8" r="26" fill="#2b6cb0" opacity="0.95" />
<text x="569.8" y="765.8" text-anchor="middle" font-size="13" font-family="Arial" fill="#1a202c">Final Fantasy Pixel Remaster</text>
<circle cx="541.9" cy="631.3" r="26" fill="#2b6cb0" opacity="0.95" />
<text x="541.9" y="676.3" text-anchor="middle" font-size="13" font-family="Arial" fill="#1a202c">Final Fantasy V</text>
<circle cx="547.6" cy="537.8" r="26" fill="#2b6cb0" opacity="0.95" />
<text x="547.6" y="582.8" text-anchor="middle" font-size="13" font-family="Arial" fill="#1a202c">Final Fantasy VII Rebirth</text>
<circle cx="652.3" cy="386.0" r="26" fill="#2b6cb0" opacity="0.95" />
<text x="652.3" y="431.0" text-anchor="middle" font-size="13" font-family="Arial" fill="#1a202c">Final Fantasy XI Rise of the</text>
<circle cx="707.8" cy="356.9" r="26" fill="#2b6cb0" opacity="0.95" />
<text x="707.8" y="401.9" text-anchor="middle" font-size="13" font-family="Arial" fill="#1a202c">Final Fantasy XII The Zodiac</text>
<circle cx="862.2" cy="347.6" r="26" fill="#2b6cb0" opacity="0.95" />
<text x="862.2" y="392.6" text-anchor="middle" font-size="13" font-family="Arial" fill="#1a202c">Final Fantasy XV</text>
<circle cx="452.1" cy="347.3" r="26" fill="#dd6b20" opacity="0.95" />
<text x="452.1" y="392.3" text-anchor="middle" font-size="13" font-family="Arial" fill="#1a202c">Multijugador Online Masivo</text>
<circle cx="1052.4" cy="537.8" r="26" fill="#2b6cb0" opacity="0.95" />
<text x="1052.4" y="582.8" text-anchor="middle" font-size="13" font-family="Arial" fill="#1a202c">Theatrhythm Final Fantasy</text>
<circle cx="737.8" cy="852.4" r="26" fill="#2b6cb0" opacity="0.95" />
<text x="737.8" y="897.4" text-anchor="middle" font-size="13" font-family="Arial" fill="#1a202c">Final Fantasy Curtain Call</text>
<circle cx="679.2" cy="830.2" r="26" fill="#2b6cb0" opacity="0.95" />
<text x="679.2" y="875.2" text-anchor="middle" font-size="13" font-family="Arial" fill="#1a202c">Final Fantasy II</text>
<circle cx="605.4" cy="772.4" r="26" fill="#2b6cb0" opacity="0.95" />
<text x="605.4" y="817.4" text-anchor="middle" font-size="13" font-family="Arial" fill="#1a202c">Final Fantasy IV After Years</text>
<circle cx="556.9" cy="692.2" r="26" fill="#2b6cb0" opacity="0.95" />
<text x="556.9" y="737.2" text-anchor="middle" font-size="13" font-family="Arial" fill="#1a202c">Final Fantasy Record Keeper</text>
<circle cx="569.8" cy="479.2" r="26" fill="#2b6cb0" opacity="0.95" />
<text x="569.8" y="524.2" text-anchor="middle" font-size="13" font-family="Arial" fill="#1a202c">Final Fantasy VII The First </text>
<circle cx="627.6" cy="405.4" r="26" fill="#2b6cb0" opacity="0.95" />
<text x="627.6" y="450.4" text-anchor="middle" font-size="13" font-family="Arial" fill="#1a202c">Final Fantasy XI</text>
<circle cx="679.2" cy="369.8" r="26" fill="#2b6cb0" opacity="0.95" />
<text x="679.2" y="414.8" text-anchor="middle" font-size="13" font-family="Arial" fill="#1a202c">Final Fantasy XI Treasures o</text>
<circle cx="737.8" cy="347.6" r="26" fill="#2b6cb0" opacity="0.95" />
<text x="737.8" y="392.6" text-anchor="middle" font-size="13" font-family="Arial" fill="#1a202c">Final Fantasy XIII</text>
<circle cx="768.7" cy="341.9" r="26" fill="#2b6cb0" opacity="0.95" />
<text x="768.7" y="386.9" text-anchor="middle" font-size="13" font-family="Arial" fill="#1a202c">Final Fantasy XIII-2</text>
<circle cx="947.7" cy="386.0" r="26" fill="#2b6cb0" opacity="0.95" />
<text x="947.7" y="431.0" text-anchor="middle" font-size="13" font-family="Arial" fill="#1a202c">Justice Monsters Five</text>
<circle cx="972.4" cy="405.4" r="26" fill="#2b6cb0" opacity="0.95" />
<text x="972.4" y="450.4" text-anchor="middle" font-size="13" font-family="Arial" fill="#1a202c">King's Knight Wrath of the D</text>
<circle cx="1014.0" cy="452.3" r="26" fill="#2b6cb0" opacity="0.95" />
<text x="1014.0" y="497.3" text-anchor="middle" font-size="13" font-family="Arial" fill="#1a202c">Lightning Returns FF XIII</text>
<circle cx="1030.2" cy="479.2" r="26" fill="#2b6cb0" opacity="0.95" />
<text x="1030.2" y="524.2" text-anchor="middle" font-size="13" font-family="Arial" fill="#1a202c">Mobius Final Fantasy</text>
<circle cx="1043.1" cy="507.8" r="26" fill="#2b6cb0" opacity="0.95" />
<text x="1043.1" y="552.8" text-anchor="middle" font-size="13" font-family="Arial" fill="#1a202c">Theatrhythm Final Bar Line</text>
<circle cx="1058.1" cy="568.7" r="26" fill="#2b6cb0" opacity="0.95" />
<text x="1058.1" y="613.7" text-anchor="middle" font-size="13" font-family="Arial" fill="#1a202c">World of Final Fantasy</text>
<circle cx="1060.0" cy="600.0" r="26" fill="#2b6cb0" opacity="0.95" />
<text x="1060.0" y="645.0" text-anchor="middle" font-size="13" font-family="Arial" fill="#1a202c">A King's Tale Final Fantasy </text>
<circle cx="1058.1" cy="631.3" r="26" fill="#2b6cb0" opacity="0.95" />
<text x="1058.1" y="676.3" text-anchor="middle" font-size="13" font-family="Arial" fill="#1a202c">Chocobo GP</text>
<circle cx="1052.4" cy="662.2" r="26" fill="#2b6cb0" opacity="0.95" />
<text x="1052.4" y="707.2" text-anchor="middle" font-size="13" font-family="Arial" fill="#1a202c">Chocobo's Dungeon</text>
<circle cx="1043.1" cy="692.2" r="26" fill="#2b6cb0" opacity="0.95" />
<text x="1043.1" y="737.2" text-anchor="middle" font-size="13" font-family="Arial" fill="#1a202c">Crisis Core Final Fantasy VI</text>
<circle cx="1030.2" cy="720.8" r="26" fill="#2b6cb0" opacity="0.95" />
<text x="1030.2" y="765.8" text-anchor="middle" font-size="13" font-family="Arial" fill="#1a202c">Dirge of Cerberus F. Fantasy</text>
<circle cx="1014.0" cy="747.7" r="26" fill="#2b6cb0" opacity="0.95" />
<text x="1014.0" y="792.7" text-anchor="middle" font-size="13" font-family="Arial" fill="#1a202c">Dissidia 012 Final Fantasy</text>
<circle cx="994.6" cy="772.4" r="26" fill="#2b6cb0" opacity="0.95" />
<text x="994.6" y="817.4" text-anchor="middle" font-size="13" font-family="Arial" fill="#1a202c">Dissidia Final Fantasy</text>
<circle cx="947.7" cy="814.0" r="26" fill="#2b6cb0" opacity="0.95" />
<text x="947.7" y="859.0" text-anchor="middle" font-size="13" font-family="Arial" fill="#1a202c">Dissidia: Final Fantasy NT</text>
<circle cx="892.2" cy="843.1" r="26" fill="#2b6cb0" opacity="0.95" />
<text x="892.2" y="888.1" text-anchor="middle" font-size="13" font-family="Arial" fill="#1a202c">FF7R - INTERmission</text>
<circle cx="862.2" cy="852.4" r="26" fill="#2b6cb0" opacity="0.95" />
<text x="862.2" y="897.4" text-anchor="middle" font-size="13" font-family="Arial" fill="#1a202c">FFCC Echoes of Time</text>
<circle cx="800.0" cy="860.0" r="26" fill="#2b6cb0" opacity="0.95" />
<text x="800.0" y="905.0" text-anchor="middle" font-size="13" font-family="Arial" fill="#1a202c">FFCC Ring of Fates</text>
<circle cx="768.7" cy="858.1" r="26" fill="#2b6cb0" opacity="0.95" />
<text x="768.7" y="903.1" text-anchor="middle" font-size="13" font-family="Arial" fill="#1a202c">FFCC The Crystal Bearers</text>
</svg>